<?xml version="1.0" encoding="UTF-8" standalone="no"?>
<!-- Created with Inkscape (http://www.inkscape.org/) -->

<svg
   width="132.14542mm"
   height="43.807468mm"
   viewBox="0 0 132.14542 43.807468"
   version="1.1"
   id="svg1"
   inkscape:version="1.4.2 (ebf0e940d0, 2025-05-08)"
   sodipodi:docname="amici_objects.svg"
   xml:space="preserve"
   inkscape:export-filename="amici_objects.png"
   inkscape:export-xdpi="300"
   inkscape:export-ydpi="300"
   xmlns:inkscape="http://www.inkscape.org/namespaces/inkscape"
   xmlns:sodipodi="http://sodipodi.sourceforge.net/DTD/sodipodi-0.dtd"
   xmlns="http://www.w3.org/2000/svg"
   xmlns:svg="http://www.w3.org/2000/svg"><sodipodi:namedview
     id="namedview1"
     pagecolor="#ffffff"
     bordercolor="#666666"
     borderopacity="1.0"
     inkscape:showpageshadow="2"
     inkscape:pageopacity="0.0"
     inkscape:pagecheckerboard="0"
     inkscape:deskcolor="#d1d1d1"
     inkscape:document-units="mm"
     inkscape:zoom="1.9036892"
     inkscape:cx="214.846"
     inkscape:cy="89.56294"
     inkscape:window-width="1920"
     inkscape:window-height="1108"
     inkscape:window-x="0"
     inkscape:window-y="0"
     inkscape:window-maximized="1"
     inkscape:current-layer="layer1" /><defs
     id="defs1"><marker
       style="overflow:visible"
       id="marker60"
       refX="0"
       refY="0"
       orient="auto-start-reverse"
       inkscape:stockid="Concave triangle arrow"
       markerWidth="1"
       markerHeight="1"
       viewBox="0 0 1 1"
       inkscape:isstock="true"
       inkscape:collect="always"
       preserveAspectRatio="xMidYMid"><path
         transform="scale(0.7)"
         d="M -2,-4 9,0 -2,4 c 2,-2.33 2,-5.66 0,-8 z"
         style="fill:context-stroke;fill-rule:evenodd;stroke:none"
         id="path60" /></marker><marker
       style="overflow:visible"
       id="marker20"
       refX="0"
       refY="0"
       orient="auto-start-reverse"
       inkscape:stockid="Concave triangle arrow"
       markerWidth="1"
       markerHeight="1"
       viewBox="0 0 1 1"
       inkscape:isstock="true"
       inkscape:collect="always"
       preserveAspectRatio="xMidYMid"><path
         transform="scale(0.7)"
         d="M -2,-4 9,0 -2,4 c 2,-2.33 2,-5.66 0,-8 z"
         style="fill:context-stroke;fill-rule:evenodd;stroke:none"
         id="path20" /></marker><marker
       style="overflow:visible"
       id="ConcaveTriangle"
       refX="0"
       refY="0"
       orient="auto-start-reverse"
       inkscape:stockid="Concave triangle arrow"
       markerWidth="1"
       markerHeight="1"
       viewBox="0 0 1 1"
       inkscape:isstock="true"
       inkscape:collect="always"
       preserveAspectRatio="xMidYMid"><path
         transform="scale(0.7)"
         d="M -2,-4 9,0 -2,4 c 2,-2.33 2,-5.66 0,-8 z"
         style="fill:context-stroke;fill-rule:evenodd;stroke:none"
         id="path7" /></marker></defs><g
     inkscape:label="Layer 1"
     inkscape:groupmode="layer"
     id="layer1"
     transform="translate(9.5032815,-37.348122)"><text
       xml:space="preserve"
       style="font-size:4.23333px;line-height:1.2;font-family:'DejaVu Sans';-inkscape-font-specification:'DejaVu Sans, Normal';text-decoration-color:#000000;letter-spacing:0px;word-spacing:0px;fill:#000000;stroke:none;stroke-width:0.264583px;stroke-linecap:butt;stroke-linejoin:miter;stroke-opacity:1;-inkscape-stroke:none;stop-color:#000000"
       x="54.929668"
       y="72.040466"
       id="text2"><tspan
         sodipodi:role="line"
         id="tspan2"
         style="font-style:normal;font-variant:normal;font-weight:normal;font-stretch:normal;font-family:'DejaVu Sans Mono';-inkscape-font-specification:'DejaVu Sans Mono';stroke:none;stroke-width:0.264583px"
         x="54.929668"
         y="72.040466">Model</tspan></text><text
       xml:space="preserve"
       style="font-size:4.23333px;line-height:1.2;font-family:'DejaVu Sans';-inkscape-font-specification:'DejaVu Sans, Normal';text-decoration-color:#000000;letter-spacing:0px;word-spacing:0px;fill:#000000;stroke:none;stroke-width:0.264583px;stroke-linecap:butt;stroke-linejoin:miter;stroke-opacity:1;-inkscape-stroke:none;stop-color:#000000"
       x="97.514999"
       y="72.423035"
       id="text4"><tspan
         sodipodi:role="line"
         id="tspan4"
         style="font-style:normal;font-variant:normal;font-weight:normal;font-stretch:normal;font-family:'DejaVu Sans Mono';-inkscape-font-specification:'DejaVu Sans Mono';stroke:none;stroke-width:0.264583px"
         x="97.514999"
         y="72.423035">ReturnData</tspan></text><g
       id="g14"
       transform="translate(69.469168,5.540479)"><path
         style="fill:none;fill-rule:evenodd;stroke:#000000;stroke-width:0.5;stroke-linecap:butt;stroke-linejoin:miter;stroke-opacity:1"
         d="M 34.452755,50.742985 V 61.361801"
         id="path10"
         sodipodi:nodetypes="cc" /><path
         style="fill:none;fill-rule:evenodd;stroke:#000000;stroke-width:0.5;stroke-linecap:butt;stroke-linejoin:miter;stroke-opacity:1"
         d="m 32.927173,59.942711 h 13.07725"
         id="path11"
         sodipodi:nodetypes="cc" /><text
         xml:space="preserve"
         style="font-size:4.23333px;line-height:1.2;font-family:'DejaVu Sans';-inkscape-font-specification:'DejaVu Sans, Normal';text-decoration-color:#000000;letter-spacing:0px;word-spacing:0px;fill:#000000;stroke:none;stroke-width:0.264583px;stroke-linecap:butt;stroke-linejoin:miter;stroke-opacity:1;-inkscape-stroke:none;stop-color:#000000"
         x="33.087463"
         y="50.192604"
         id="text11"><tspan
           sodipodi:role="line"
           id="tspan11"
           style="font-weight:bold;stroke:none;stroke-width:0.264583px"
           x="33.087463"
           y="50.192604">x</tspan></text><text
         xml:space="preserve"
         style="font-size:4.23333px;line-height:1.2;font-family:'DejaVu Sans';-inkscape-font-specification:'DejaVu Sans, Normal';text-decoration-color:#000000;letter-spacing:0px;word-spacing:0px;fill:#000000;stroke:none;stroke-width:0.264583px;stroke-linecap:butt;stroke-linejoin:miter;stroke-opacity:1;-inkscape-stroke:none;stop-color:#000000"
         x="46.660717"
         y="61.428925"
         id="text12"><tspan
           sodipodi:role="line"
           id="tspan12"
           style="font-weight:bold;stroke:none;stroke-width:0.264583px"
           x="46.660717"
           y="61.428925">t</tspan></text><path
         style="fill:none;fill-rule:evenodd;stroke:#000000;stroke-width:0.5;stroke-linecap:butt;stroke-linejoin:miter;stroke-dasharray:none;stroke-opacity:1;marker-end:url(#ConcaveTriangle)"
         d="m 34.325624,59.136992 c 4.538689,-0.0047 6.909187,-1.744239 9.369711,-4.874891"
         id="path12"
         sodipodi:nodetypes="cc" /></g><g
       id="g15"><g
         id="g13"
         transform="translate(14.472407,-7.7469525)"><text
           xml:space="preserve"
           style="font-size:4.23333px;line-height:1.2;font-family:'DejaVu Sans';-inkscape-font-specification:'DejaVu Sans, Normal';text-decoration-color:#000000;letter-spacing:0px;word-spacing:0px;fill:#000000;stroke:none;stroke-width:0.264583px;stroke-linecap:butt;stroke-linejoin:miter;stroke-opacity:1;-inkscape-stroke:none;stop-color:#000000"
           x="44.278252"
           y="69.289444"
           id="text8"><tspan
             sodipodi:role="line"
             style="font-weight:bold;stroke:none;stroke-width:0.264583px"
             x="44.278252"
             y="69.289444"
             id="tspan8">=f(x)</tspan></text><g
           id="g12"><text
             xml:space="preserve"
             style="font-size:4.23333px;line-height:1.2;font-family:'DejaVu Sans';-inkscape-font-specification:'DejaVu Sans, Normal';text-decoration-color:#000000;letter-spacing:0px;word-spacing:0px;fill:#000000;stroke:#000000;stroke-width:0.264583px;stroke-linecap:butt;stroke-linejoin:miter;stroke-opacity:1;-inkscape-stroke:none;stop-color:#000000"
             x="38.006672"
             y="66.998528"
             id="text5"><tspan
               sodipodi:role="line"
               id="tspan5"
               style="font-weight:bold;stroke:none;stroke-width:0.264583px"
               x="38.006672"
               y="66.998528">dx</tspan><tspan
               sodipodi:role="line"
               style="font-weight:bold;stroke:none;stroke-width:0.264583px"
               x="38.006672"
               y="72.078522"
               id="tspan6">dt</tspan></text><path
             style="fill:none;fill-rule:evenodd;stroke:#000000;stroke-width:0.5;stroke-linecap:butt;stroke-linejoin:miter;stroke-opacity:1"
             d="M 37.740078,67.960329 H 44.16024"
             id="path9" /></g></g><rect
         style="fill:none;fill-opacity:1;stroke:#000000;stroke-width:0.5;stroke-dasharray:none;stroke-opacity:1;paint-order:stroke fill markers"
         id="rect26-0"
         width="19.546106"
         height="9.7178602"
         x="51.52108"
         y="55.354446"
         rx="1"
         ry="1" /></g><g
       id="g17"
       transform="translate(-43.670258,-13.484193)"><g
         id="g26"
         transform="translate(1.7798472,-0.50852777)"><path
           style="fill:none;fill-rule:evenodd;stroke:#000000;stroke-width:0.264583px;stroke-linecap:butt;stroke-linejoin:miter;stroke-opacity:1;marker-end:url(#marker20)"
           d="m 40.486382,70.693567 2.244429,1.150021"
           id="path19"
           sodipodi:nodetypes="cc" /><g
           id="g23"><text
             xml:space="preserve"
             style="font-size:4.23333px;line-height:1.2;font-family:'DejaVu Sans';-inkscape-font-specification:'DejaVu Sans, Normal';text-decoration-color:#000000;letter-spacing:0px;word-spacing:0px;fill:#000000;stroke:#000000;stroke-width:0.264583px;stroke-linecap:butt;stroke-linejoin:miter;stroke-opacity:1;-inkscape-stroke:none;stop-color:#000000"
             x="36.583107"
             y="71.18808"
             id="text17"><tspan
               sodipodi:role="line"
               id="tspan17"
               style="font-weight:bold;stroke:none;stroke-width:0.264583px"
               x="36.583107"
               y="71.18808">A</tspan></text><circle
             style="fill:none;fill-opacity:1;stroke:#000000;stroke-width:0.25;stroke-dasharray:none;stroke-opacity:1;paint-order:stroke fill markers"
             id="path21"
             cx="38.221249"
             cy="69.64502"
             r="2.4107261" /></g><g
           id="g24"
           transform="translate(-5.2822386,3.3947184)"><text
             xml:space="preserve"
             style="font-size:4.23333px;line-height:1.2;font-family:'DejaVu Sans';-inkscape-font-specification:'DejaVu Sans, Normal';text-decoration-color:#000000;letter-spacing:0px;word-spacing:0px;fill:#000000;stroke:#000000;stroke-width:0.264583px;stroke-linecap:butt;stroke-linejoin:miter;stroke-opacity:1;-inkscape-stroke:none;stop-color:#000000"
             x="50.045475"
             y="71.59919"
             id="text19"><tspan
               sodipodi:role="line"
               id="tspan19"
               style="font-weight:bold;stroke:none;stroke-width:0.264583px"
               x="50.045475"
               y="71.59919">C</tspan></text><circle
             style="fill:none;fill-opacity:1;stroke:#000000;stroke-width:0.25;stroke-dasharray:none;stroke-opacity:1;paint-order:stroke fill markers"
             id="circle21"
             cx="51.877407"
             cy="70.058197"
             r="2.4107261" /></g><g
           id="g25"
           transform="translate(-4.6591148,1.9337513)"><text
             xml:space="preserve"
             style="font-size:4.23333px;line-height:1.2;font-family:'DejaVu Sans';-inkscape-font-specification:'DejaVu Sans, Normal';text-decoration-color:#000000;letter-spacing:0px;word-spacing:0px;fill:#000000;stroke:#000000;stroke-width:0.264583px;stroke-linecap:butt;stroke-linejoin:miter;stroke-opacity:1;-inkscape-stroke:none;stop-color:#000000"
             x="41.22155"
             y="77.6819"
             id="text18"><tspan
               sodipodi:role="line"
               id="tspan18"
               style="font-weight:bold;stroke:none;stroke-width:0.264583px"
               x="41.22155"
               y="77.6819">B</tspan></text><circle
             style="fill:none;fill-opacity:1;stroke:#000000;stroke-width:0.25;stroke-dasharray:none;stroke-opacity:1;paint-order:stroke fill markers"
             id="circle22"
             cx="42.880363"
             cy="76.13884"
             r="2.4107261" /></g><path
           style="fill:none;fill-rule:evenodd;stroke:#000000;stroke-width:0.264583px;stroke-linecap:butt;stroke-linejoin:miter;stroke-opacity:1;marker-end:url(#marker20)"
           d="M 40.658523,77.565907 43.201317,75.86238"
           id="path22"
           sodipodi:nodetypes="cc" /><path
           style="fill:none;fill-rule:evenodd;stroke:#000000;stroke-width:0.264583px;stroke-linecap:butt;stroke-linejoin:miter;stroke-opacity:1;marker-end:url(#marker20)"
           d="M 38.221248,75.536865 V 73.847618"
           id="path23"
           sodipodi:nodetypes="cc" /></g></g><text
       xml:space="preserve"
       style="font-size:4.23333px;line-height:1.2;font-family:'DejaVu Sans';-inkscape-font-specification:'DejaVu Sans, Normal';text-decoration-color:#000000;letter-spacing:0px;word-spacing:0px;fill:#000000;stroke:none;stroke-width:0.264583px;stroke-linecap:butt;stroke-linejoin:miter;stroke-opacity:1;-inkscape-stroke:none;stop-color:#000000"
       x="0.524005"
       y="72.040466"
       id="text58"><tspan
         sodipodi:role="line"
         id="tspan58"
         style="text-align:center;text-anchor:middle;stroke:none;stroke-width:0.264583px"
         x="0.52400458"
         y="72.040466">high-level</tspan><tspan
         sodipodi:role="line"
         style="text-align:center;text-anchor:middle;stroke:none;stroke-width:0.264583px"
         x="0.52400535"
         y="77.120461"
         id="tspan59">model</tspan></text><path
       style="fill:none;fill-rule:evenodd;stroke:#000000;stroke-width:0.5;stroke-linecap:butt;stroke-linejoin:miter;stroke-opacity:1;marker-end:url(#marker60)"
       d="m 40.889221,59.866084 h 6.437484"
       id="path59"
       sodipodi:nodetypes="cc" /><g
       id="g61"
       transform="translate(2.6183483)"><text
         xml:space="preserve"
         style="font-size:4.23333px;line-height:1.2;font-family:'DejaVu Sans';-inkscape-font-specification:'DejaVu Sans, Normal';text-decoration-color:#000000;letter-spacing:0px;word-spacing:0px;fill:#000000;stroke:none;stroke-width:0.264583px;stroke-linecap:butt;stroke-linejoin:miter;stroke-opacity:1;-inkscape-stroke:none;stop-color:#000000"
         x="75.264877"
         y="56.993618"
         id="text1"><tspan
           sodipodi:role="line"
           id="tspan1"
           style="font-style:normal;font-variant:normal;font-weight:normal;font-stretch:normal;font-family:'DejaVu Sans Mono';-inkscape-font-specification:'DejaVu Sans Mono';stroke:none;stroke-width:0.264583px"
           x="75.264877"
           y="56.993618">Solver</tspan></text><text
         xml:space="preserve"
         style="font-size:4.23333px;line-height:1.2;font-family:'DejaVu Sans';-inkscape-font-specification:'DejaVu Sans, Normal';text-decoration-color:#000000;letter-spacing:0px;word-spacing:0px;fill:#000000;stroke:none;stroke-width:0.264583px;stroke-linecap:butt;stroke-linejoin:miter;stroke-opacity:1;-inkscape-stroke:none;stop-color:#000000"
         x="74.029808"
         y="80.275024"
         id="text3"><tspan
           sodipodi:role="line"
           id="tspan3"
           style="font-style:normal;font-variant:normal;font-weight:normal;font-stretch:normal;font-family:'DejaVu Sans Mono';-inkscape-font-specification:'DejaVu Sans Mono';stroke:none;stroke-width:0.264583px"
           x="74.029808"
           y="80.275024">ExpData</tspan></text><g
         id="g49"
         transform="matrix(0.70498946,0,0,0.70498946,52.97244,29.40078)"><rect
           style="fill:none;fill-opacity:1;stroke:#000000;stroke-width:0.75;stroke-dasharray:none;stroke-opacity:1;paint-order:stroke fill markers"
           id="rect26"
           width="14.14493"
           height="17.511108"
           x="35.483521"
           y="47.306763"
           rx="2"
           ry="2" /><g
           id="g28"><rect
             style="fill:#ffffff;fill-opacity:1;stroke-width:1.06454;paint-order:stroke fill markers"
             id="rect27"
             width="8.3448515"
             height="2.2701659"
             x="38.38356"
             y="46.326797"
             rx="0.22664945"
             ry="0.2" /><rect
             style="fill:none;fill-opacity:1;stroke:#000000;stroke-width:0.5;stroke-dasharray:none;stroke-opacity:1;paint-order:stroke fill markers"
             id="rect26-7"
             width="7.185452"
             height="2.2701645"
             x="38.963257"
             y="46.326797"
             rx="0.2"
             ry="0.2" /><path
             style="fill:#ffffff;fill-opacity:1;stroke:#000000;stroke-width:1;stroke-opacity:1;paint-order:stroke fill markers"
             id="path27"
             sodipodi:type="arc"
             sodipodi:cx="42.555984"
             sodipodi:cy="46.576611"
             sodipodi:rx="0.79194742"
             sodipodi:ry="0.67670304"
             sodipodi:start="3.1415927"
             sodipodi:end="0"
             sodipodi:arc-type="arc"
             d="m 41.764037,46.576611 a 0.79194742,0.67670304 0 0 1 0.791947,-0.676703 0.79194742,0.67670304 0 0 1 0.791948,0.676703"
             sodipodi:open="true" /><circle
             style="fill:#000000;fill-opacity:1;stroke:none;stroke-width:1.0472;stroke-opacity:1;paint-order:stroke fill markers"
             id="path28"
             cx="42.555984"
             cy="46.473103"
             r="0.36879984" /></g><path
           style="fill:none;fill-rule:evenodd;stroke:#000000;stroke-width:0.5;stroke-linecap:round;stroke-linejoin:miter;stroke-opacity:1"
           d="M 37.057105,57.810933 H 45.19151"
           id="path30"
           sodipodi:nodetypes="cc" /><path
           style="fill:none;fill-rule:evenodd;stroke:#000000;stroke-width:0.5;stroke-linecap:round;stroke-linejoin:miter;stroke-opacity:1"
           d="m 37.057105,59.930081 h 4.923901"
           id="path31" /><path
           style="fill:none;fill-rule:evenodd;stroke:#000000;stroke-width:0.5;stroke-linecap:round;stroke-linejoin:miter;stroke-opacity:1"
           d="m 37.057105,61.986899 h 2.617772"
           id="path32" /><g
           id="g40"
           transform="translate(0.59531588)"><path
             style="fill:none;fill-rule:evenodd;stroke:#000000;stroke-width:0.5;stroke-linecap:round;stroke-linejoin:round;stroke-opacity:1"
             d="m 36.461789,49.52009 v 5.515396 h 10.997764"
             id="path29"
             sodipodi:nodetypes="ccc" /><g
             id="g39"
             transform="translate(0.47832429,-0.30749419)"><path
               style="fill:none;fill-rule:evenodd;stroke:#000000;stroke-width:0.5;stroke-linecap:round;stroke-linejoin:round;stroke-opacity:1"
               d="m 37.044458,54.394432 1.828575,-1.709996 1.099985,1.128399 1.966286,-2.280853 2.368514,1.218565 1.536609,-1.594889"
               id="path34"
               sodipodi:nodetypes="cccccc" /><circle
               style="fill:#ffffff;fill-opacity:1;stroke:#000000;stroke-width:0.75;stroke-opacity:1;paint-order:stroke fill markers"
               id="path28-3"
               cx="37.066818"
               cy="54.378323"
               r="0.11304415" /><circle
               style="fill:#ffffff;fill-opacity:1;stroke:#000000;stroke-width:0.75;stroke-opacity:1;paint-order:stroke fill markers"
               id="circle34"
               cx="38.860535"
               cy="52.687103"
               r="0.11304415" /><circle
               style="fill:#ffffff;fill-opacity:1;stroke:#000000;stroke-width:0.75;stroke-opacity:1;paint-order:stroke fill markers"
               id="circle35"
               cx="39.953846"
               cy="53.763332"
               r="0.11304415" /><circle
               style="fill:#ffffff;fill-opacity:1;stroke:#000000;stroke-width:0.75;stroke-opacity:1;paint-order:stroke fill markers"
               id="circle36"
               cx="41.935474"
               cy="51.542542"
               r="0.11304415" /><circle
               style="fill:#ffffff;fill-opacity:1;stroke:#000000;stroke-width:0.75;stroke-opacity:1;paint-order:stroke fill markers"
               id="circle37"
               cx="44.343365"
               cy="52.721268"
               r="0.11304415" /><circle
               style="fill:#ffffff;fill-opacity:1;stroke:#000000;stroke-width:0.75;stroke-opacity:1;paint-order:stroke fill markers"
               id="circle38"
               cx="45.795422"
               cy="51.200878"
               r="0.11304415" /></g></g><g
           id="g42"
           transform="translate(-0.73700673,-2.248942)"><path
             style="fill:none;fill-rule:evenodd;stroke:#000000;stroke-width:0.264583px;stroke-linecap:round;stroke-linejoin:round;stroke-opacity:1"
             d="M 44.247708,62.110937 H 45.1707 v 1.019758 c 0,0.997937 1.461053,1.285398 0.549253,2.1059 h -2.062421 c -0.84963,-0.767115 0.590184,-1.098843 0.59018,-2.1059 z"
             id="path40"
             sodipodi:nodetypes="ccsccsc" /><path
             style="fill:none;fill-rule:evenodd;stroke:#000000;stroke-width:0.5;stroke-linecap:round;stroke-linejoin:miter;stroke-opacity:1"
             d="m 44.189266,62.179023 h 1.030272"
             id="path41"
             sodipodi:nodetypes="cc" /><path
             style="fill:#000000;fill-opacity:1;fill-rule:evenodd;stroke:#000000;stroke-width:0.264583px;stroke-linecap:butt;stroke-linejoin:round;stroke-opacity:1"
             d="m 45.481665,64.02475 -1.078991,0.0078 -0.709481,0.919251 0.481695,0.187735 h 1.570591 l 0.174102,-0.505889 z"
             id="path42"
             sodipodi:nodetypes="ccccccc" /></g><g
           id="g48"
           transform="translate(0,-1.0098335)"><path
             id="path43"
             style="fill:#ffffff;stroke:#000000;stroke-width:0.499999;stroke-linecap:round;stroke-linejoin:round;paint-order:stroke fill markers"
             d="m 47.999306,58.82077 c 0,0.03982 -0.0796,0.08824 -0.22218,0.107951 -0.375961,0.05198 0.287156,4.396576 -0.603183,4.499652 -0.975927,0.112985 -0.18607,-4.416988 -0.599775,-4.498887 -0.130112,-0.02576 -0.210214,-0.06185 -0.223643,-0.09818 l 0.823418,-0.01054 z"
             sodipodi:nodetypes="csssccc" /><path
             style="fill:none;fill-rule:evenodd;stroke:#000000;stroke-width:0.264583px;stroke-linecap:round;stroke-linejoin:miter;stroke-opacity:1"
             d="M 46.867754,59.89259 H 47.43258"
             id="path44"
             sodipodi:nodetypes="cc" /><path
             style="fill:none;fill-rule:evenodd;stroke:#000000;stroke-width:0.264583px;stroke-linecap:round;stroke-linejoin:miter;stroke-opacity:1"
             d="M 46.867754,60.950924 H 47.43258"
             id="path46"
             sodipodi:nodetypes="cc" /><path
             style="fill:none;fill-rule:evenodd;stroke:#000000;stroke-width:0.264583px;stroke-linecap:butt;stroke-linejoin:miter;stroke-opacity:1"
             d="M 46.593513,61.804734 H 47.7179"
             id="path47" /><path
             style="fill:#000000;fill-opacity:1;stroke:#000000;stroke-width:0.0652914;stroke-linecap:round;stroke-linejoin:round;stroke-opacity:1;paint-order:stroke fill markers"
             d="m 177.79459,239.6478 c -0.22146,-0.0781 -0.50614,-0.37828 -0.68016,-0.71712 -0.41719,-0.81228 -0.64386,-2.13026 -0.72342,-4.20646 l -0.0235,-0.61327 h 1.87379 1.87379 l -0.0222,0.38869 c -0.20516,3.58555 -0.80648,5.21719 -1.91838,5.20535 -0.12352,-0.001 -0.29446,-0.0271 -0.37988,-0.0572 z"
             id="path48"
             transform="scale(0.26458333)" /></g></g><g
         id="g59"
         transform="translate(37.70166,-7.6436205)"><path
           style="fill:none;fill-rule:evenodd;stroke:#000000;stroke-width:0.5;stroke-linecap:round;stroke-linejoin:round;stroke-opacity:1"
           d="M 37.981979,54.658889 V 58.95268 H 51.397514 V 49.151629 H 38.990352 c 0.25419,1.916251 -0.474264,3.698505 -1.008373,5.50726 z"
           id="path50"
           sodipodi:nodetypes="cccccc" /><g
           id="g57"
           transform="translate(-0.52916667)"><circle
             style="fill:#ffffff;fill-opacity:1;stroke:none;stroke-width:1.27889;stroke-linecap:round;stroke-linejoin:round;stroke-opacity:1;paint-order:stroke fill markers"
             id="circle54-5"
             cx="43.957325"
             cy="49.758125"
             r="4.7663832" /><path
             style="fill:#000000;stroke-width:0.103377"
             d="m 43.874183,53.998319 -0.08493,-0.07146 -0.10373,-0.281023 c -0.05705,-0.154564 -0.111448,-0.290067 -0.120879,-0.301121 -0.0094,-0.01105 -0.115188,-0.03756 -0.235012,-0.05891 -0.119826,-0.02135 -0.237738,-0.04683 -0.262029,-0.05662 l -0.04416,-0.01781 -0.183743,0.222095 c -0.200094,0.241858 -0.314147,0.327694 -0.435631,0.327851 -0.09389,1.25e-4 -0.453455,-0.158136 -0.700912,-0.308499 -0.244324,-0.148458 -0.402947,-0.28168 -0.454815,-0.381981 l -0.04369,-0.08449 0.01539,-0.111636 c 0.0085,-0.0614 0.05293,-0.202563 0.09882,-0.313698 0.04589,-0.111134 0.08343,-0.223165 0.08343,-0.248958 0,-0.03559 -0.363113,-0.492616 -0.391391,-0.492616 -0.0031,0 -0.116282,0.03062 -0.251568,0.06804 -0.306494,0.08478 -0.416649,0.08623 -0.535961,0.007 l -0.09294,-0.06169 -0.142978,-0.273369 c -0.07864,-0.150351 -0.181262,-0.390296 -0.22805,-0.533209 l -0.08507,-0.259842 0.01405,-0.106853 c 0.01771,-0.134717 0.108374,-0.224892 0.359999,-0.358045 0.105304,-0.05573 0.213001,-0.12045 0.239327,-0.143833 l 0.04786,-0.04252 -4.13e-4,-0.276117 c -2.07e-4,-0.151864 -0.0099,-0.290973 -0.0214,-0.309131 -0.01154,-0.01816 -0.137513,-0.08729 -0.279938,-0.153627 -0.273632,-0.127449 -0.331976,-0.174022 -0.381637,-0.304638 l -0.03076,-0.0809 0.03176,-0.192565 c 0.03448,-0.209057 0.177572,-0.619475 0.302916,-0.868845 0.05244,-0.104317 0.107557,-0.171515 0.165114,-0.201279 l 0.0864,-0.04468 0.35534,0.03519 0.35534,0.03519 0.05738,-0.06975 c 0.03156,-0.03836 0.115838,-0.137266 0.187294,-0.219788 0.073,-0.0843 0.129921,-0.17732 0.129921,-0.2123 0,-0.03424 -0.04923,-0.158884 -0.109406,-0.276982 l -0.10941,-0.214695 v -0.128434 -0.128435 l 0.129851,-0.120923 c 0.292024,-0.271946 0.899579,-0.607722 1.099615,-0.607722 0.136947,0 0.228389,0.06485 0.422831,0.299879 0.100017,0.120893 0.203035,0.219875 0.228926,0.21996 0.09218,3e-4 0.594651,-0.118684 0.625222,-0.148054 0.01711,-0.01644 0.07189,-0.150879 0.121735,-0.298757 l 0.09063,-0.268869 0.07866,-0.06619 0.07866,-0.06619 h 0.310659 c 0.472184,0 0.966299,0.113185 1.099234,0.251797 l 0.07658,0.07985 0.009,0.354507 0.009,0.354507 0.141411,0.07164 c 0.07778,0.03941 0.21659,0.119116 0.308477,0.177139 0.09189,0.05803 0.182253,0.105496 0.200815,0.105496 0.01856,0 0.16455,-0.0677 0.324419,-0.150435 0.15987,-0.08274 0.325512,-0.150435 0.368094,-0.150435 0.118869,0 0.218158,0.06438 0.388822,0.252094 0.183717,0.202077 0.549177,0.740771 0.575852,0.848816 0.03275,0.132642 -0.01134,0.209531 -0.253426,0.442017 l -0.237078,0.227673 0.09266,0.307459 0.09266,0.307459 0.05634,0.02459 c 0.03099,0.01353 0.171761,0.04785 0.312832,0.07628 l 0.256491,0.05168 0.08045,0.08045 c 0.04425,0.04425 0.09162,0.128598 0.105267,0.187449 0.04124,0.177822 0.02927,0.560947 -0.02778,0.888723 l -0.05389,0.309682 -0.08008,0.08008 -0.08008,0.08008 -0.336634,0.05133 c -0.185148,0.02823 -0.344046,0.06049 -0.353104,0.07168 -0.0329,0.04066 -0.218428,0.497071 -0.218428,0.53736 0,0.02277 0.0919,0.139659 0.204215,0.259761 0.112319,0.120103 0.212287,0.250528 0.222152,0.289834 0.04918,0.195934 -0.05653,0.37355 -0.494746,0.831293 -0.148152,0.154752 -0.291235,0.277311 -0.359355,0.307808 l -0.113188,0.05067 -0.09195,-0.01738 c -0.05057,-0.0096 -0.199117,-0.08953 -0.330102,-0.17771 -0.130985,-0.08818 -0.250615,-0.16033 -0.265843,-0.16033 -0.01523,0 -0.13884,0.06332 -0.274692,0.140723 l -0.247004,0.140724 v 0.325615 0.325615 l -0.03982,0.07701 c -0.0219,0.04235 -0.08037,0.09622 -0.12992,0.119694 -0.140616,0.06662 -0.635245,0.157606 -0.95196,0.175115 l -0.287474,0.0159 z m 0.495768,-0.305742 c 0.140712,-0.01761 0.50989,-0.08727 0.594901,-0.112251 l 0.04786,-0.01407 V 53.25085 52.935443 l 0.04518,-0.09521 0.04518,-0.09521 0.153121,-0.06747 c 0.08422,-0.03711 0.236423,-0.117677 0.338235,-0.179039 l 0.185112,-0.111567 0.13643,0.01311 0.13643,0.01311 0.232063,0.154435 c 0.127634,0.08494 0.249644,0.154434 0.271134,0.154434 0.04898,0 0.515072,-0.497093 0.581162,-0.619814 l 0.04896,-0.09092 -0.138681,-0.143804 c -0.183297,-0.190066 -0.258086,-0.302945 -0.28752,-0.433945 l -0.02428,-0.108067 0.12441,-0.293228 c 0.253699,-0.597955 0.229402,-0.57751 0.739916,-0.622622 0.106465,-0.0094 0.208241,-0.02617 0.226168,-0.03725 0.05074,-0.03136 0.116668,-0.472352 0.107874,-0.721545 l -0.0079,-0.224696 -0.314545,-0.07657 -0.314545,-0.07657 -0.08639,-0.08364 c -0.05361,-0.05191 -0.09809,-0.131813 -0.117251,-0.210621 -0.01697,-0.06984 -0.06834,-0.246862 -0.114133,-0.393377 l -0.08326,-0.266391 0.03323,-0.102858 0.03324,-0.102858 0.219235,-0.21129 0.219236,-0.211288 -0.07657,-0.116933 c -0.113164,-0.172761 -0.441992,-0.608492 -0.488141,-0.646793 l -0.03999,-0.0332 -0.269116,0.15161 -0.269116,0.15161 H 46.109272 45.96095 l -0.206137,-0.129921 c -0.113375,-0.07146 -0.286725,-0.173 -0.38522,-0.225652 l -0.179085,-0.09573 -0.04782,-0.09573 -0.04782,-0.09573 -4.2e-5,-0.308384 -4.2e-5,-0.308385 -0.06732,-0.0256 c -0.09392,-0.03571 -0.482582,-0.10321 -0.716441,-0.124431 l -0.195696,-0.01776 -0.0915,0.281502 -0.0915,0.281501 -0.08849,0.08895 c -0.05542,0.0557 -0.126977,0.09525 -0.191462,0.105816 -0.05664,0.0093 -0.195285,0.03631 -0.308111,0.06007 -0.267278,0.05629 -0.423038,0.07204 -0.506145,0.05118 -0.09055,-0.02273 -0.237314,-0.155252 -0.38618,-0.348715 -0.06759,-0.08784 -0.138899,-0.159703 -0.158467,-0.159703 -0.09952,0 -0.874362,0.483076 -0.85291,0.531749 0.007,0.01593 0.05652,0.127429 0.109995,0.247777 l 0.09723,0.218815 -6.2e-4,0.150435 c -7.27e-4,0.182176 -0.0102,0.199179 -0.285891,0.515035 l -0.218814,0.2507 -0.114242,0.04404 -0.114242,0.04404 -0.213979,-0.0292 c -0.117688,-0.01606 -0.253116,-0.03722 -0.300948,-0.04701 l -0.08697,-0.01781 -0.08077,0.160307 c -0.08708,0.172831 -0.212528,0.546887 -0.228056,0.679991 l -0.0096,0.08206 0.191462,0.08855 c 0.334702,0.154801 0.379413,0.183059 0.431399,0.272649 l 0.05088,0.08768 0.01345,0.404648 0.01345,0.404649 -0.05089,0.09236 -0.05089,0.09236 -0.258403,0.148518 c -0.142122,0.08168 -0.268023,0.158054 -0.27978,0.169712 -0.03937,0.03904 0.286992,0.817495 0.362224,0.863991 0.01514,0.0094 0.14843,-0.01548 0.296201,-0.05518 l 0.268674,-0.0722 0.112098,0.03018 c 0.137501,0.03703 0.16893,0.06382 0.428225,0.365063 0.185341,0.215325 0.262756,0.356213 0.263288,0.479155 8.3e-5,0.01937 -0.04293,0.146767 -0.09558,0.283101 -0.05265,0.136333 -0.09573,0.270807 -0.09573,0.29883 v 0.05095 l 0.299931,0.178037 c 0.164961,0.09792 0.346486,0.197488 0.403388,0.221262 l 0.103456,0.04322 0.04152,-0.05127 c 0.179447,-0.221609 0.39932,-0.444256 0.465992,-0.471872 l 0.08019,-0.03321 0.217536,0.04383 c 0.119644,0.02411 0.286759,0.05197 0.371366,0.06191 l 0.153831,0.01808 0.07551,0.07552 c 0.04578,0.04578 0.111142,0.176138 0.165995,0.331071 0.120989,0.341742 0.128313,0.35415 0.200284,0.339352 0.03325,-0.0068 0.121989,-0.02013 0.197206,-0.02954 z"
             id="path49"
             sodipodi:nodetypes="scccsssccsssscsssssscsscsssccssscssscccsssscccsssssscccsscccsssssssscccsscssscccsssssssccssscccssssccscccccsscccssscsscsssscccssscccccsscccccsscccccsscccssssssssccscccsscsscsscccccsssccssssscsscsscsscsss" /><circle
             style="fill:#ffffff;fill-opacity:1;stroke:#000000;stroke-width:0.75;stroke-linecap:round;stroke-linejoin:round;stroke-opacity:1;paint-order:stroke fill markers"
             id="circle53"
             cx="43.957325"
             cy="49.758125"
             r="2.1406717" /><circle
             style="fill:#ffffff;fill-opacity:1;stroke:#000000;stroke-width:0.75;stroke-linecap:round;stroke-linejoin:round;stroke-opacity:1;paint-order:stroke fill markers"
             id="circle55"
             cx="43.957325"
             cy="49.758125"
             r="1.2568849" /></g><g
           id="g58"><path
             style="fill:none;fill-rule:evenodd;stroke:#000000;stroke-width:0.264583px;stroke-linecap:round;stroke-linejoin:miter;stroke-opacity:1"
             d="m 47.79545,47.132207 0.862975,-0.498239"
             id="path55" /><path
             style="fill:none;fill-rule:evenodd;stroke:#000000;stroke-width:0.264583px;stroke-linecap:round;stroke-linejoin:miter;stroke-opacity:1"
             d="m 48.137982,47.739926 1.414325,-0.331483"
             id="path56" /><path
             style="fill:none;fill-rule:evenodd;stroke:#000000;stroke-width:0.264583px;stroke-linecap:round;stroke-linejoin:miter;stroke-opacity:1"
             d="m 48.314771,48.325547 h 1.447475"
             id="path57" /></g><g
           id="g13-3"
           transform="matrix(0.4579565,0,0,0.4579565,21.806601,25.008991)"><text
             xml:space="preserve"
             style="font-size:4.62198px;line-height:1.2;font-family:'DejaVu Sans';-inkscape-font-specification:'DejaVu Sans, Normal';text-decoration-color:#000000;letter-spacing:0px;word-spacing:0px;fill:#000000;stroke:none;stroke-width:0.264583px;stroke-linecap:butt;stroke-linejoin:miter;stroke-opacity:1;-inkscape-stroke:none;stop-color:#000000"
             x="44.363701"
             y="69.499771"
             id="text8-6"><tspan
               sodipodi:role="line"
               style="font-weight:bold;font-size:4.62198px;stroke:none;stroke-width:0.264583px"
               x="44.363701"
               y="69.499771"
               id="tspan8-1">=f(x)</tspan></text><g
             id="g12-2"><text
               xml:space="preserve"
               style="font-size:4.62198px;line-height:1.2;font-family:'DejaVu Sans';-inkscape-font-specification:'DejaVu Sans, Normal';text-decoration-color:#000000;letter-spacing:0px;word-spacing:0px;fill:#000000;stroke:#000000;stroke-width:0.264583px;stroke-linecap:butt;stroke-linejoin:miter;stroke-opacity:1;-inkscape-stroke:none;stop-color:#000000"
               x="38.006672"
               y="66.998528"
               id="text5-9"><tspan
                 sodipodi:role="line"
                 id="tspan5-3"
                 style="font-weight:bold;font-size:4.62198px;stroke:none;stroke-width:0.264583px"
                 x="38.006672"
                 y="66.998528">dx</tspan><tspan
                 sodipodi:role="line"
                 style="font-weight:bold;font-size:4.62198px;stroke:none;stroke-width:0.264583px"
                 x="38.006672"
                 y="72.544907"
                 id="tspan6-1">dt</tspan></text><path
               style="fill:none;fill-rule:evenodd;stroke:#000000;stroke-width:0.5;stroke-linecap:butt;stroke-linejoin:miter;stroke-opacity:1"
               d="m 38.010311,68.048629 h 6.420162"
               id="path9-9" /></g></g><g
           id="g53"
           transform="translate(-4.7265116,-0.74730986)"><g
             id="g54"><circle
               style="fill:#ffffff;fill-opacity:1;stroke:none;stroke-width:0.654854;stroke-linecap:round;stroke-linejoin:round;stroke-opacity:1;paint-order:stroke fill markers"
               id="circle54"
               cx="55.262745"
               cy="59.742596"
               r="2.2763898" /><circle
               style="fill:#ffffff;fill-opacity:1;stroke:#000000;stroke-width:0.75;stroke-linecap:round;stroke-linejoin:round;stroke-opacity:1;paint-order:stroke fill markers"
               id="path52"
               cx="55.262745"
               cy="59.742596"
               r="1.6855534" /></g><path
             sodipodi:type="star"
             style="fill:#000000;fill-opacity:1;stroke:#000000;stroke-width:0.499999;stroke-linecap:round;stroke-linejoin:round;stroke-opacity:1;paint-order:stroke fill markers"
             id="path53"
             inkscape:flatsided="true"
             sodipodi:sides="3"
             sodipodi:cx="57.240059"
             sodipodi:cy="49.406155"
             sodipodi:r1="2.2724898"
             sodipodi:r2="2.6526318"
             sodipodi:arg1="2.095596"
             sodipodi:arg2="3.1427935"
             inkscape:rounded="0"
             inkscape:randomized="0"
             d="m 56.101451,51.372823 0.0047,-3.936065 3.406369,1.972126 z"
             transform="matrix(0.48866936,0,0,0.48866936,27.155812,35.59999)" /></g></g><path
         style="fill:none;fill-rule:evenodd;stroke:#000000;stroke-width:0.5;stroke-linecap:butt;stroke-linejoin:miter;stroke-opacity:1;marker-end:url(#marker60)"
         d="M 71.565636,59.866084 H 91.232287"
         id="path61"
         sodipodi:nodetypes="cc" /></g><text
       xml:space="preserve"
       style="font-size:4.23333px;line-height:1.2;font-family:'DejaVu Sans';-inkscape-font-specification:'DejaVu Sans, Normal';text-decoration-color:#000000;letter-spacing:0px;word-spacing:0px;fill:#000000;stroke:none;stroke-width:0.264583px;stroke-linecap:butt;stroke-linejoin:miter;stroke-opacity:1;-inkscape-stroke:none;stop-color:#000000"
       x="29.46455"
       y="72.040466"
       id="text9"><tspan
         sodipodi:role="line"
         style="text-align:center;text-anchor:middle;stroke:none;stroke-width:0.264583px"
         x="29.46455"
         y="72.040466"
         id="tspan9">model </tspan><tspan
         sodipodi:role="line"
         style="text-align:center;text-anchor:middle;stroke:none;stroke-width:0.264583px"
         x="29.46455"
         y="77.120461"
         id="tspan10">module</tspan></text><path
       style="fill:none;fill-rule:evenodd;stroke:#000000;stroke-width:0.5;stroke-linecap:butt;stroke-linejoin:miter;stroke-opacity:1;marker-end:url(#marker60)"
       d="M 9.1392193,59.866084 H 15.576703"
       id="path13"
       sodipodi:nodetypes="cc" /><g
       id="g16"><rect
         style="fill:none;fill-opacity:1;stroke:#000000;stroke-width:0.5;stroke-dasharray:none;stroke-opacity:1;paint-order:stroke fill markers"
         id="rect1"
         width="19.546106"
         height="9.7178602"
         x="19.771078"
         y="55.354446"
         rx="1"
         ry="1" /><g
         id="g11"><g
           id="g10"
           transform="matrix(0.11921352,0,0,0.11921352,32.784095,50.871913)"><path
             style="fill:#000000;fill-opacity:1;stroke-width:0.264583"
             d="m 35.454397,42.904615 c -1.212759,0.0056 -2.370916,0.109066 -3.389974,0.289388 -3.00202,0.530358 -3.54707,1.640444 -3.547071,3.68763 v 2.703711 h 7.094141 v 0.901237 h -7.094141 -2.662369 c -2.061755,0 -3.867087,1.239233 -4.431771,3.59668 -0.651357,2.70218 -0.680248,4.388385 0,7.209895 0.504277,2.100224 1.708558,3.59668 3.770312,3.59668 h 2.439128 V 61.64869 c 0,-2.341536 2.025953,-4.406965 4.431771,-4.406966 h 7.085872 c 1.972456,0 3.547071,-1.624056 3.54707,-3.604948 v -6.755143 c 0,-1.922552 -1.62189,-3.366764 -3.54707,-3.68763 -1.218667,-0.202863 -2.48314,-0.295023 -3.695898,-0.289388 z m -3.836459,2.174544 c 0.732776,0 1.331185,0.608184 1.331185,1.35599 0,0.745155 -0.598409,1.347721 -1.331185,1.347721 -0.735403,0 -1.331185,-0.602566 -1.331185,-1.347721 0,-0.747806 0.595782,-1.35599 1.331185,-1.35599 z"
             id="path1948" /><path
             style="fill:#ffffff;fill-opacity:1;stroke:#000000;stroke-width:0.352777;stroke-opacity:1"
             d="m 43.582066,50.486581 v 3.150195 c 0,2.442304 -2.070602,4.497917 -4.431771,4.497917 h -7.085872 c -1.940939,0 -3.54707,1.661182 -3.547071,3.604948 v 6.755142 c 0,1.922553 1.671793,3.053376 3.547071,3.604948 2.245606,0.660297 4.399025,0.779629 7.085872,0 1.785978,-0.517099 3.547071,-1.557763 3.54707,-3.604948 v -2.70371 h -7.085872 v -0.901237 h 7.085872 3.547072 c 2.061755,0 2.830049,-1.438118 3.547067,-3.59668 0.740656,-2.222205 0.709142,-4.359215 0,-7.209895 -0.509529,-2.05249 -1.48269,-3.59668 -3.547067,-3.59668 z"
             id="path1950"
             sodipodi:nodetypes="csssssccsccccsccsc" /><circle
             style="fill:#000000;fill-opacity:1;stroke:none;stroke-width:3.9534;stroke-opacity:1;paint-order:stroke fill markers"
             id="path28-6"
             cx="39.605003"
             cy="68.987671"
             r="1.3922964" /></g></g><text
         xml:space="preserve"
         style="font-size:2.11667px;line-height:1.2;font-family:'DejaVu Sans';-inkscape-font-specification:'DejaVu Sans, Normal';text-align:center;text-decoration-color:#000000;letter-spacing:0px;word-spacing:0px;text-anchor:middle;fill:#000000;stroke:#000000;stroke-width:0.264583px;stroke-linecap:butt;stroke-linejoin:miter;stroke-opacity:1;-inkscape-stroke:none;stop-color:#000000"
         x="20.143141"
         y="60.088326"
         id="text13"><tspan
           sodipodi:role="line"
           id="tspan13"
           style="font-style:normal;font-variant:normal;font-weight:normal;font-stretch:normal;font-size:2.11667px;font-family:'DejaVu Sans Mono';-inkscape-font-specification:'DejaVu Sans Mono';text-align:start;text-anchor:start;stroke:none;stroke-width:0.264583px"
           x="20.143141"
           y="60.088326">class Model</tspan><tspan
           sodipodi:role="line"
           style="font-style:normal;font-variant:normal;font-weight:normal;font-stretch:normal;font-size:2.11667px;font-family:'DejaVu Sans Mono';-inkscape-font-specification:'DejaVu Sans Mono';text-align:start;text-anchor:start;stroke:none;stroke-width:0.264583px"
           x="20.143141"
           y="62.62833"
           id="tspan14">def get_model()</tspan></text></g></g></svg>
